<svg width="218" height="83" viewBox="0 0 218 83" fill="none" xmlns="http://www.w3.org/2000/svg">
<path d="M25.5 10.5C25.5 8.5 24.5 7.5 22.5 7.5H14C12 7.5 11 8.5 11 10.5V26.5C11 28.5 12 29.5 14 29.5H22.5C24.5 29.5 25.5 28.5 25.5 26.5V10.5ZM34.5 26.5C34.5 30 33.7 32.55 32.1 34.15C30.5333 35.7167 28 36.5 24.5 36.5H12C8.5 36.5 5.95 35.7167 4.35 34.15C2.78333 32.55 2 30 2 26.5V10.5C2 7 2.78333 4.46667 4.35 2.9C5.95 1.3 8.5 0.499998 12 0.499998H24.5C28 0.499998 30.5333 1.3 32.1 2.9C33.7 4.46667 34.5 7 34.5 10.5V26.5ZM70.0234 36H60.5234L48.5234 15V36H39.5234V0.999998H49.0234L61.0234 22V0.999998H70.0234V36ZM106.047 35.25C98.2469 36.0833 91.0802 36.5 84.5469 36.5C81.2802 36.5 78.8802 35.7333 77.3469 34.2C75.8135 32.6667 75.0469 30.2667 75.0469 27V11C75.0469 7.5 75.8302 4.96667 77.3969 3.4C78.9969 1.8 81.5469 0.999998 85.0469 0.999998H103.047V8H87.0469C85.0469 8 84.0469 9 84.0469 11V27C84.0469 27.7667 84.2635 28.3833 84.6969 28.85C85.1635 29.2833 85.7802 29.5 86.5469 29.5C90.3802 29.5 93.8802 29.4167 97.0469 29.25V22H90.5469V16H106.047V35.25ZM109.557 29C116.323 29.5 121.657 29.75 125.557 29.75C126.057 29.75 126.473 29.5833 126.807 29.25C127.14 28.9167 127.307 28.5 127.307 28V26.25H116.557C114.29 26.25 112.473 25.5667 111.107 24.2C109.74 22.8333 109.057 21.0167 109.057 18.75V17C109.057 14.7333 109.74 12.9167 111.107 11.55C112.473 10.1833 114.29 9.5 116.557 9.5H133.557V16H119.557C119.057 16 118.64 16.1667 118.307 16.5C117.973 16.8333 117.807 17.25 117.807 17.75C117.807 18.25 117.973 18.6667 118.307 19C118.64 19.3333 119.057 19.5 119.557 19.5H128.557C130.823 19.5 132.64 20.1833 134.007 21.55C135.373 22.9167 136.057 24.7333 136.057 27V29C136.057 31.2667 135.373 33.0833 134.007 34.45C132.64 35.8167 130.823 36.5 128.557 36.5C122.657 36.5 116.323 36.1667 109.557 35.5V29Z" fill="#206DE0"/>
<path d="M59.5 43C63.2667 43 66.1167 43.9833 68.05 45.95C70.0167 47.8833 71 50.7333 71 54.5V66.5C71 70.2667 70.0167 73.1333 68.05 75.1C66.1167 77.0333 63.2667 78 59.5 78H40V43H59.5ZM62 54.5C62 51.5 60.5 50 57.5 50H49V71H57.5C60.5 71 62 69.5 62 66.5V54.5ZM102.486 70.5C102.486 73 101.77 74.9667 100.336 76.4C98.9363 77.8 96.9863 78.5 94.4863 78.5H82.9863C80.4863 78.5 78.5197 77.8 77.0863 76.4C75.6863 74.9667 74.9863 73 74.9863 70.5V59C74.9863 56.5 75.6863 54.55 77.0863 53.15C78.5197 51.7167 80.4863 51 82.9863 51H94.4863C96.9863 51 98.9363 51.7167 100.336 53.15C101.77 54.55 102.486 56.5 102.486 59V70.5ZM93.7363 59.75C93.7363 58.4167 93.0697 57.75 91.7363 57.75H85.7363C84.403 57.75 83.7363 58.4167 83.7363 59.75V69.75C83.7363 71.0833 84.403 71.75 85.7363 71.75H91.7363C93.0697 71.75 93.7363 71.0833 93.7363 69.75V59.75ZM107.48 43H127.48C130.747 43 133.147 43.75 134.68 45.25C136.214 46.7167 136.98 48.9667 136.98 52C136.98 54 136.547 55.6333 135.68 56.9C134.814 58.1333 133.747 59 132.48 59.5C135.18 60.2333 137.014 62.0333 137.98 64.9C138.314 65.9333 138.48 67.1333 138.48 68.5C138.48 71.7667 137.714 74.1667 136.18 75.7C134.647 77.2333 132.247 78 128.98 78H107.48V43ZM129.48 67C129.48 65 128.48 64 126.48 64H116.48V71H126.48C128.48 71 129.48 70 129.48 68V67ZM127.98 53C127.98 51 126.98 50 124.98 50H116.48V57H124.98C126.98 57 127.98 56 127.98 54V53ZM152.729 57.25C151.395 57.25 150.729 57.9167 150.729 59.25V62H159.229V59.25C159.229 57.9167 158.562 57.25 157.229 57.25H152.729ZM166.979 77.5C160.545 78.1667 154.712 78.5 149.479 78.5C147.212 78.5 145.395 77.8167 144.029 76.45C142.662 75.0833 141.979 73.2667 141.979 71V59C141.979 56.5 142.679 54.55 144.079 53.15C145.512 51.7167 147.479 51 149.979 51H159.979C162.479 51 164.429 51.7167 165.829 53.15C167.262 54.55 167.979 56.5 167.979 59V68.25H150.729V70.25C150.729 70.75 150.895 71.1667 151.229 71.5C151.562 71.8333 151.979 72 152.479 72C155.779 72 160.612 71.75 166.979 71.25V77.5ZM190.209 51C192.909 51 194.992 52 196.459 54C197.992 52.9667 199.642 52.2167 201.409 51.75C203.209 51.25 204.809 51 206.209 51H206.709C208.976 51 210.792 51.6833 212.159 53.05C213.526 54.4167 214.209 56.2333 214.209 58.5V78H205.459V60C205.459 59.5 205.292 59.0833 204.959 58.75C204.626 58.4167 204.209 58.25 203.709 58.25H203.459C201.959 58.25 200.042 58.5833 197.709 59.25V78H188.959V60C188.959 59.5 188.792 59.0833 188.459 58.75C188.126 58.4167 187.709 58.25 187.209 58.25H186.959C185.459 58.25 183.542 58.5833 181.209 59.25V78H172.459V51.5H180.209L180.709 54C182.276 52.9667 183.876 52.2167 185.509 51.75C187.176 51.25 188.576 51 189.709 51H190.209Z" fill="black"/>
</svg>
