<svg width="216" height="216" viewBox="0 0 216 216" fill="none" xmlns="http://www.w3.org/2000/svg">
<path d="M107.91 18C58.23 18 18 58.32 18 108C18 157.68 58.23 198 107.91 198C157.68 198 198 157.68 198 108C198 58.32 157.68 18 107.91 18ZM108 180C68.22 180 36 147.78 36 108C36 68.22 68.22 36 108 36C147.78 36 180 68.22 180 108C180 147.78 147.78 180 108 180ZM139.5 99C146.97 99 153 92.97 153 85.5C153 78.03 146.97 72 139.5 72C132.03 72 126 78.03 126 85.5C126 92.97 132.03 99 139.5 99ZM76.5 99C83.97 99 90 92.97 90 85.5C90 78.03 83.97 72 76.5 72C69.03 72 63 78.03 63 85.5C63 92.97 69.03 99 76.5 99ZM108 157.5C128.97 157.5 146.79 144.36 153.99 126H62.01C69.21 144.36 87.03 157.5 108 157.5Z" fill="#206DE0"/>
</svg>
